<?xml version="1.0" encoding="UTF-8"?>
<svg id="Layer_1" xmlns="http://www.w3.org/2000/svg" version="1.1" viewBox="0 0 145.2 36.1">
  <!-- Generator: Adobe Illustrator 30.7.0, SVG Export Plug-In . SVG Version: 2.1.4 Build 114)  -->
  <defs>
    <style>
      .st0 {
        fill: #536ab0;
      }

      .st1 {
        fill: #fff;
      }

      .st2 {
        fill: #1bb794;
      }
    </style>
  </defs>
  <g>
    <path class="st0" d="M25.2.7c-1.6,0-2.9,1.2-2.9,2.8,0,1.4,1.1,2.6,2.5,2.8,0,0,0,0,0,0,.4,0,.8,0,1.1-.1h0c1.2-.3,2-1.4,2-2.7s-1.3-2.8-2.9-2.8Z"/>
    <path class="st1" d="M30.5,9.9h4.7c.1,0,.2,0,.2.2v2.6c0,.1,0,.2.2.2h0c0,0,.1,0,.2-.1.9-2,2.8-3.2,5.4-3.2,4.3,0,6.6,2.6,6.6,7.2v12.2c0,.1,0,.2-.2.2h-4.7c-.1,0-.2,0-.2-.2v-11c0-2.7-1.1-4.1-3.5-4.1s-3.8,1.7-3.8,4.3v10.9c0,.1,0,.2-.2.2h-4.7c-.1,0-.2,0-.2-.2V10.1c0-.1,0-.2.2-.2Z"/>
    <path class="st1" d="M49.3,23.8s0,0,0,0h0c0,0,4.9,0,4.9,0,0,0,0,0,0,0h0s0,0,0,0c.4,1.2,1.6,2,3.6,2s3.3-.8,3.3-2.1h0c0-1.1-.8-1.7-2.7-2.1l-3.2-.7c-3.7-.8-5.5-2.6-5.5-5.4h0c0-3.6,3.2-6,8-6s7.8,2.5,8,5.6c0,0,0,0,0,0h0c0,0-4.6,0-4.6,0,0,0,0,0-.1,0h0s0,0,0,0c-.3-1-1.4-2-3.3-2s-3,.8-3,2.1h0c0,1,.7,1.6,2.7,2.1l3.2.7c3.8.8,5.6,2.4,5.6,5.2h0c0,3.8-3.5,6.3-8.4,6.3s-8.2-2.3-8.5-5.6Z"/>
    <path class="st1" d="M66.9,19.5h0c0-6.2,3.6-10,9.4-10s9.4,3.8,9.4,9.9h0c0,6.3-3.5,10-9.4,10s-9.4-3.7-9.4-9.9ZM80.6,19.5h0c0-3.8-1.6-6-4.2-6s-4.2,2.2-4.2,6h0c0,3.8,1.5,6,4.2,6s4.2-2.2,4.2-6Z"/>
    <path class="st1" d="M104,22.3c0,0,0,0,0,.1h0c-.1.9-.3,1.7-.7,2.4-1.2,2.7-3.9,4.4-7.8,4.4s-4-.5-5.4-1.4c-.4-.3-.9-.6-1.2-1,0,0,0,0,0,0-.6-.6-1.1-1.3-1.5-2s0,0,0,0c1-2.9,2.2-4.3,3-5,.6-.5,1-.6,1-.6h0c0,3.9,1.5,6,4.2,6s3.3-1,3.8-2.9,0,0,0,0h0s0,0,0,0h4.5Z"/>
    <path class="st1" d="M104.8,23.6h0c0-3.5,2.7-5.5,7.4-5.8l4.5-.3s0,0,0,0v-1.5c0-1.6-1.1-2.6-3.2-2.6s-3,.6-3.4,1.8,0,0,0,0h0s0,0,0,0h-4.5c0,0,0,0,0,0h0c.4-3.4,3.6-5.6,8.4-5.6s7.9,2.4,7.9,6.5v12.9s0,0,0,0h-4.8s0,0,0,0v-2.4s0,0,0,0h-.2s0,0,0,0c-1,1.7-3,2.8-5.5,2.8-3.7,0-6.2-2.3-6.2-5.7ZM112.8,25.6c2.3,0,4.1-1.5,4.1-3.6v-1.3c0,0,0,0,0,0l-3.8.2c-2.2.1-3.2,1-3.2,2.3h0c0,1.5,1.2,2.4,3,2.4Z"/>
    <path class="st1" d="M124.4,9.9h5.1v2.9h.3c1-2,3-3.3,5.7-3.3,4.8,0,7.8,3.7,7.8,9.8h0c0,6.2-2.9,9.9-7.8,9.9s-4.8-1.3-5.7-3.3h-.3v9.4h-5.1V9.9ZM138.1,19.5h0c0-3.5-1.7-5.7-4.3-5.7s-4.4,2.1-4.4,5.6h0c0,3.5,1.7,5.7,4.4,5.7s4.3-2.1,4.3-5.6Z"/>
    <path class="st1" d="M15.1,15c-1.5,1.1-3,2.3-4.3,3.6,0,0-.2.2-.2.2v9.6c0,.1,0,.2.1.3,0,0,.2.1.3.1h4.2c0,0,.2,0,.3,0,.1,0,.2-.2.2-.3v-13.8c-.1.1-.3.2-.4.3ZM19.2,3.4c0,0-.2-.1-.3-.1h-1.4c-1.8,0-3.2.1-4.2.4-1,.3-1.7.9-2.2,1.7-.5.8-.7,2-.7,3.4v.8c0,0,0,.2-.2.2h-2.1c-.1,0-.3,0-.3.2,0,0,0,.2,0,.3v3.4c0,.1,0,.2.1.3,0,0,.2.1.3.1h2.1c0,0,.2,0,.2.2v1.5c2.4-2.3,4.9-4.4,7.4-5.9h-2.2c0,0-.2,0-.2-.2v-.4c0-.9.2-1.4.5-1.8.3-.3.9-.5,1.7-.5h1.2c0,0,.2,0,.3,0,.1,0,.2-.2.2-.3v-2.9c0-.1,0-.2-.1-.3ZM16.4,14.1h2.8c0,0,.2,0,.3,0,.1,0,.2-.2.2-.3v-1.4c-1.2.6-2.4,1.3-3.2,1.8Z"/>
  </g>
  <path class="st2" d="M91.5,17.4c-2,1.4-3.4,3.1-4.3,5.4.2-5.8,4.9-9.4,10.2-10.8l-1.2-2.9c1.4-.5,2.8-.9,4.4-1.1l4,8.7c-1.9-1.3-4-1.8-6.2-1.7-2.5.1-4.8.9-6.9,2.3Z"/>
  <path class="st0" d="M95.9,10.1c-3.7,1.3-6.5,3.4-8,7-.4,1-.7,2-1,3.2-.6-1.9-.6-3.8-.2-5.7.7-3.9,3.5-8,7-10.1.3.7.6,1.3.8,2s.3.9.5,1.3l.9,2.3Z"/>
  <path class="st0" d="M14.9,14.7c-1.5,1.1-3,2.3-4.4,3.6-2,1.8-3.7,3.8-5.4,6-1.1,1.5-2.1,2.9-2.9,4.6l-.3.7c.6-2.7,2.4-5.7,4-7.9,1.3-1.8,2.9-3.6,4.6-5.3,2.5-2.5,5.3-4.7,8.1-6.4,0,0,.2-.1.3-.2,2.3-1.3,6.4-3.3,9-2.1,3.1,1.3,1.6,5.9.5,8.1,0-.6.2-1.1.2-1.6,0-1-.2-2-.9-2.7v17.3c0,.2-.2.4-.4.4h-4.3c-.2,0-.4-.2-.4-.4V10.7c-1,.3-2,.7-3,1.2-1.4.7-2.8,1.5-3.8,2.3"/>
</svg>